<?xml version="1.0" encoding="UTF-8"?>
<svg id="Layer_1" data-name="Layer 1" xmlns="http://www.w3.org/2000/svg" viewBox="0 0 2500 500">
  <defs>
    <style>
      .cls-1 {
        fill: #e1f3fc;
      }

      .cls-1, .cls-2, .cls-3, .cls-4, .cls-5, .cls-6 {
        stroke-width: 0px;
      }

      .cls-1, .cls-4, .cls-6 {
        fill-rule: evenodd;
      }

      .cls-2 {
        fill: #1b478d;
      }

      .cls-3, .cls-4 {
        fill: #fff;
      }

      .cls-5, .cls-6 {
        fill: #0d4689;
      }
    </style>
  </defs>
  <path class="cls-4" d="m120.11,296.16l-.03-.11-.02-.12-.43-2.07-.02-.11-.02-.12c-.21-1.04-.42-2.08-.62-3.12l-.02-.12-.02-.12h0s-.26-1.39-.26-1.39l-.02-.12h0c65.9,59.86,142.47,5.17,204.26,80.54-57.95-62.33-144.22-16.95-202.79-73.15h0Z"/>
  <path class="cls-4" d="m565.91,305.9c-.43,1.61-.87,3.21-1.33,4.81-.17.6-.36,1.19-.53,1.78-.31,1.03-.62,2.07-.95,3.1-.22.7-.45,1.4-.68,2.09-.3.92-.6,1.83-.91,2.74l-.75,2.17c-.33.93-.66,1.86-1.01,2.79-.24.65-.47,1.3-.72,1.94-.41,1.09-.84,2.17-1.27,3.25l-.59,1.49c-.62,1.52-1.25,3.03-1.9,4.54-.25.58-.51,1.16-.77,1.74-.42.96-.85,1.91-1.29,2.87-.31.67-.62,1.33-.94,2-.41.87-.83,1.74-1.25,2.61-.33.67-.66,1.33-.99,2-.43.86-.86,1.71-1.3,2.56-.34.65-.67,1.3-1.01,1.94-.5.94-1,1.87-1.51,2.8-.29.53-.58,1.07-.88,1.6-.81,1.45-1.63,2.89-2.47,4.31l-.03.05-.2.32c-.78,1.31-1.57,2.61-2.37,3.9-.34.55-.7,1.1-1.04,1.65-.55.87-1.1,1.74-1.67,2.61-.39.6-.78,1.18-1.18,1.78-.54.81-1.09,1.63-1.64,2.43-.4.59-.81,1.17-1.21,1.76-.62.89-1.25,1.77-1.88,2.65l-1,1.39c-.78,1.06-1.58,2.12-2.37,3.17l-.69.91c-.99,1.29-2,2.58-3.03,3.85-.4.5-.81.99-1.21,1.48-.66.81-1.32,1.62-1.99,2.41-.45.54-.91,1.07-1.36,1.6-.65.76-1.31,1.52-1.97,2.27l-1.36,1.53c-.71.79-1.42,1.57-2.13,2.34l-1.29,1.39c-.78.83-1.57,1.66-2.37,2.48-.38.4-.76.79-1.14,1.19-1.16,1.18-2.32,2.34-3.51,3.5l-.87.83c-.93.89-1.86,1.78-2.8,2.66-.46.43-.93.86-1.4,1.29-.77.7-1.54,1.41-2.32,2.1l-1.54,1.36c-.78.69-1.57,1.36-2.36,2.04l-1.54,1.3c-.8.67-1.61,1.34-2.43,2-.5.41-1,.82-1.51,1.23-1.07.86-2.16,1.71-3.24,2.55l-.81.63c-1.29.99-2.6,1.96-3.91,2.92l-1.41,1.02c-.89.64-1.78,1.28-2.69,1.91-.58.4-1.16.8-1.75,1.2-.82.56-1.64,1.12-2.46,1.67-.6.4-1.2.8-1.8,1.19-.85.56-1.71,1.1-2.57,1.65-.58.37-1.17.74-1.76,1.11-1.07.67-2.15,1.32-3.23,1.97l-1.04.63c-1.46.86-2.93,1.71-4.41,2.54-.43.24-.87.48-1.3.72-1.06.59-2.12,1.17-3.19,1.74-.56.3-1.12.59-1.69.88-.97.51-1.94,1.01-2.92,1.5l-1.78.89c-.95.47-1.91.93-2.87,1.39l-1.85.88c-1.01.47-2.03.93-3.05,1.39-.54.24-1.09.49-1.63.73-1.55.68-3.1,1.35-4.67,1.99l-.88.35c-1.29.53-2.59,1.05-3.9,1.55-.58.22-1.16.44-1.75.66-1.07.4-2.14.8-3.22,1.19l-1.81.64c-1.03.36-2.06.71-3.09,1.06-.66.22-1.33.44-1.99.66-1.04.34-2.07.66-3.12.99-.62.19-1.25.39-1.87.58-1.28.39-2.57.76-3.87,1.12-.39.11-.78.23-1.17.34-1.66.46-3.32.89-4.99,1.32-.55.14-1.1.27-1.66.4-1.16.28-2.32.56-3.49.83-.65.15-1.29.29-1.94.43-1.1.24-2.21.48-3.32.7l-1.97.4c-1.09.21-2.18.41-3.27.61-.69.12-1.38.25-2.07.37-1.22.21-2.44.4-3.66.59-.52.08-1.04.17-1.56.25-1.75.26-3.51.5-5.26.72-.43.05-.85.1-1.28.15-1.36.16-2.72.32-4.08.45-.66.07-1.32.12-1.98.19-1.13.11-2.26.2-3.39.29l-2.17.16c-1.14.08-2.28.15-3.42.21l-2.03.11c-1.26.06-2.53.1-3.79.14-.56.02-1.12.04-1.68.05-1.83.04-3.67.07-5.52.07h0c-1.85,0-3.7-.03-5.53-.07-.54-.01-1.08-.03-1.62-.05-1.29-.04-2.57-.09-3.85-.14-.68-.03-1.36-.07-2.03-.1-1.13-.06-2.25-.13-3.37-.21-.74-.05-1.47-.1-2.21-.16-1.12-.09-2.23-.19-3.35-.29-.68-.06-1.36-.12-2.04-.19-1.34-.14-2.68-.29-4.02-.45-.43-.05-.87-.1-1.31-.15-1.77-.22-3.53-.46-5.28-.72-.48-.07-.95-.15-1.42-.22-1.3-.2-2.59-.41-3.88-.63-.62-.11-1.23-.22-1.85-.33-1.16-.21-2.31-.42-3.46-.65l-1.91-.38c-1.11-.23-2.22-.46-3.32-.7-.65-.14-1.31-.28-1.96-.43-1.17-.27-2.33-.55-3.49-.83-.55-.13-1.09-.26-1.63-.4-1.68-.42-3.36-.87-5.03-1.33l-.93-.26c-1.37-.38-2.73-.78-4.09-1.19-.61-.19-1.22-.38-1.84-.57-1.06-.33-2.11-.66-3.16-1l-2-.66c-1.01-.34-2.02-.68-3.03-1.04-.64-.22-1.27-.45-1.91-.68-1.07-.39-2.14-.78-3.2-1.19l-1.67-.63c-1.35-.52-2.69-1.06-4.03-1.61l-.78-.31c-1.58-.65-3.15-1.32-4.7-2-.51-.22-1.02-.46-1.54-.69-1.06-.48-2.13-.96-3.18-1.45-.6-.28-1.2-.57-1.8-.85-.96-.46-1.91-.92-2.87-1.39l-1.8-.9c-1-.5-1.99-1.01-2.97-1.53l-1.59-.84c-1.1-.59-2.19-1.18-3.28-1.79l-1.25-.69c-1.48-.83-2.95-1.68-4.4-2.54l-.96-.58c-1.13-.68-2.26-1.36-3.38-2.06l-1.59-1.01c-.9-.57-1.8-1.15-2.7-1.73l-1.75-1.16c-.88-.58-1.75-1.17-2.61-1.77l-1.52-1.04c-.96-.67-1.91-1.34-2.85-2.02l-1.38-1c-1.19-.87-2.37-1.75-3.55-2.65l-.47-.35-.03-.02-.15-.11c-1.27-.98-2.53-1.97-3.78-2.96-.48-.38-.95-.77-1.42-1.16-.84-.69-1.68-1.37-2.51-2.07-.51-.43-1.01-.85-1.51-1.28-.81-.69-1.62-1.39-2.42-2.09l-1.42-1.25c-.83-.74-1.65-1.49-2.47-2.24-.43-.4-.87-.8-1.3-1.2-.97-.91-1.93-1.83-2.89-2.75l-.76-.73c-1.21-1.18-2.41-2.37-3.59-3.57l-.85-.88c-.89-.92-1.78-1.84-2.65-2.78-.4-.43-.8-.86-1.2-1.29-.74-.8-1.47-1.6-2.2-2.41-.45-.5-.9-1-1.34-1.51-.67-.76-1.33-1.52-1.98-2.29-.46-.54-.92-1.08-1.38-1.62-.65-.78-1.3-1.56-1.94-2.35-.42-.51-.84-1.02-1.25-1.53-1.03-1.28-2.04-2.57-3.04-3.87l-.47-.62c-.87-1.14-1.73-2.29-2.58-3.45-.33-.45-.66-.91-.99-1.37-.64-.89-1.28-1.79-1.91-2.68l-1.17-1.69c-.58-.84-1.15-1.69-1.72-2.54l-1.12-1.7c-.57-.87-1.13-1.76-1.69-2.64-.34-.54-.69-1.08-1.03-1.62-.71-1.14-1.41-2.3-2.1-3.46l-.49-.82c-.85-1.44-1.68-2.89-2.49-4.34-.27-.48-.53-.97-.8-1.46-.54-.99-1.08-1.98-1.61-2.97l-.95-1.82c-.47-.9-.92-1.8-1.38-2.7l-.93-1.87c-.45-.92-.89-1.84-1.33-2.77l-.88-1.87c-.44-.97-.88-1.94-1.31-2.91-.25-.58-.52-1.15-.77-1.73-.65-1.51-1.29-3.02-1.91-4.55l-.47-1.19c-.48-1.2-.95-2.4-1.41-3.6-.22-.57-.42-1.14-.63-1.72-.37-1-.74-2.01-1.09-3.02-.24-.67-.47-1.34-.7-2.01-.33-.96-.65-1.93-.96-2.89l-.64-2c-.32-1.01-.62-2.02-.92-3.03-.19-.64-.39-1.28-.57-1.93-.39-1.35-.76-2.69-1.12-4.05l-.23-.85h0s.04.01.04.01c34.59,28.81,77.84,27.95,113.89,32.07,48.38,5.54,98.13,24.07,107.98,92.86,9.85-68.78,59.6-87.32,107.98-92.86,35.97-4.12,79.1-3.26,113.64-31.87"/>
  <path class="cls-1" d="m346.03,25.37c1.98,0,3.95.02,5.91.07,1.96.05,3.92.12,5.87.22h0c1.95.1,3.89.21,5.83.36h0c1.94.14,3.87.31,5.79.5h0c1.92.19,3.84.4,5.75.64,1.91.24,3.81.5,5.71.78h0c1.89.28,3.78.59,5.66.91h0c1.88.33,3.75.68,5.61,1.05,1.86.37,3.72.77,5.56,1.18h0c1.85.41,3.68.85,5.51,1.31h0c1.83.46,3.65.94,5.46,1.44,1.81.5,3.61,1.02,5.41,1.57,1.79.54,3.58,1.11,5.35,1.69,1.77.59,3.54,1.19,5.29,1.82,1.75.63,3.5,1.27,5.23,1.94h0c1.73.66,3.45,1.35,5.17,2.06,1.71.7,3.41,1.43,5.1,2.18,1.69.75,3.37,1.51,5.04,2.29,1.67.78,3.32,1.59,4.97,2.41,1.64.82,3.28,1.66,4.9,2.52,1.62.86,3.23,1.74,4.83,2.63,1.6.9,3.19,1.81,4.76,2.74,1.57.93,3.13,1.88,4.68,2.85h0c1.55.97,3.08,1.95,4.61,2.96,1.52,1,3.03,2.02,4.53,3.06,1.5,1.04,2.98,2.09,4.45,3.16,1.47,1.07,2.92,2.16,4.37,3.26,1.44,1.1,2.87,2.22,4.28,3.36,1.41,1.14,2.81,2.29,4.2,3.46,1.38,1.17,2.75,2.35,4.11,3.55h0c1.36,1.2,2.69,2.42,4.02,3.65,1.33,1.23,2.64,2.48,3.93,3.74,1.3,1.26,2.57,2.54,3.84,3.83,1.27,1.29,2.51,2.6,3.75,3.92h0c1.23,1.32,2.45,2.66,3.65,4.01,1.2,1.35,2.38,2.71,3.55,4.09,1.17,1.38,2.32,2.77,3.45,4.17,1.13,1.41,2.25,2.82,3.35,4.26,1.1,1.43,2.18,2.88,3.24,4.33h0c1.06,1.46,2.11,2.93,3.14,4.41,1.03,1.48,2.04,2.98,3.03,4.49,1,1.51,1.97,3.03,2.92,4.56.96,1.53,1.89,3.08,2.81,4.64.92,1.56,1.82,3.13,2.7,4.71.88,1.58,1.74,3.17,2.59,4.78.84,1.6,1.67,3.22,2.47,4.84h0c.8,1.63,1.59,3.26,2.35,4.91.76,1.65,1.51,3.3,2.23,4.97.72,1.67,1.43,3.35,2.11,5.04.68,1.69,1.35,3.39,1.99,5.1.64,1.71,1.27,3.43,1.86,5.15.6,1.73,1.18,3.47,1.74,5.21.56,1.75,1.09,3.5,1.61,5.27.52,1.77,1.01,3.54,1.48,5.32h0c.47,1.78.92,3.57,1.35,5.37h0c.43,1.8.83,3.61,1.21,5.42.38,1.82.74,3.64,1.08,5.47h0c.34,1.83.65,3.67.94,5.52h0c.29,1.85.56,3.7.8,5.56.24,1.86.46,3.73.66,5.6h0c.2,1.88.37,3.76.51,5.65.15,1.89.27,3.78.37,5.69.1,1.9.17,3.81.22,5.72h0c.05,1.91.07,3.83.07,5.76h0c0,1.89-.02,3.78-.07,5.65v.05s0,.05,0,.05v.1c-.05,1.78-.12,3.55-.21,5.31l-.04.76c-.08,1.49-.18,2.97-.29,4.45l-.13,1.67c-.1,1.21-.21,2.42-.33,3.63-.08.79-.16,1.58-.25,2.36v.05c-60.19,76-160.66.91-227.46,111.25-66.89-110.51-167.73-35.02-227.89-111.58l-.2-1.94c-.13-1.28-.24-2.57-.35-3.86l-.12-1.48c-.12-1.53-.22-3.06-.3-4.59l-.04-.8c-.09-1.72-.16-3.45-.2-5.18v-.3c-.06-1.86-.08-3.73-.08-5.61h0c0-1.93.02-3.85.08-5.76h0c.05-1.91.12-3.82.22-5.72.1-1.9.22-3.8.37-5.69.15-1.89.32-3.77.51-5.64h0c.2-1.88.42-3.74.66-5.61.24-1.86.51-3.71.8-5.56h0c.29-1.85.6-3.69.94-5.52h0c.34-1.83.7-3.66,1.08-5.47.38-1.82.79-3.62,1.21-5.42h0c.43-1.8.88-3.59,1.35-5.37h0c.47-1.79.96-3.56,1.48-5.32.51-1.77,1.05-3.52,1.61-5.27.56-1.75,1.13-3.49,1.74-5.21.6-1.73,1.22-3.45,1.86-5.15.64-1.71,1.3-3.41,1.99-5.1.68-1.69,1.39-3.37,2.11-5.04.72-1.67,1.47-3.33,2.23-4.97.76-1.65,1.55-3.28,2.35-4.91h0c.81-1.63,1.63-3.24,2.47-4.85.84-1.6,1.7-3.19,2.59-4.78.88-1.58,1.78-3.15,2.7-4.71.92-1.56,1.86-3.1,2.81-4.64.95-1.53,1.93-3.05,2.92-4.56.99-1.51,2-3.01,3.03-4.49,1.03-1.48,2.08-2.95,3.14-4.41h0c1.06-1.46,2.15-2.9,3.24-4.34,1.1-1.43,2.21-2.85,3.35-4.26,1.13-1.41,2.28-2.8,3.45-4.17,1.16-1.38,2.35-2.74,3.55-4.09,1.2-1.35,2.41-2.68,3.65-4h0c1.23-1.32,2.48-2.63,3.75-3.92,1.26-1.29,2.54-2.57,3.84-3.83h0c1.3-1.26,2.6-2.51,3.93-3.74,1.32-1.23,2.67-2.45,4.02-3.65,1.36-1.2,2.73-2.39,4.11-3.55,1.38-1.17,2.78-2.32,4.2-3.46,1.41-1.14,2.84-2.26,4.28-3.36,1.44-1.11,2.9-2.19,4.37-3.26,1.47-1.07,2.95-2.12,4.45-3.16h0c1.5-1.04,3.01-2.06,4.53-3.06,1.52-1,3.06-1.99,4.61-2.96h0c1.55-.97,3.11-1.91,4.68-2.85,1.57-.93,3.16-1.84,4.76-2.74,1.6-.89,3.21-1.77,4.83-2.63,1.62-.86,3.25-1.7,4.9-2.52,1.65-.82,3.3-1.62,4.97-2.41,1.67-.79,3.35-1.55,5.04-2.29,1.69-.74,3.39-1.47,5.1-2.18,1.71-.71,3.43-1.39,5.17-2.06h0c1.73-.67,3.48-1.31,5.23-1.94,1.75-.63,3.52-1.23,5.29-1.82,1.77-.58,3.56-1.15,5.35-1.69,1.79-.54,3.59-1.06,5.4-1.57,1.81-.5,3.63-.98,5.46-1.44h0c1.83-.46,3.67-.9,5.51-1.31h0c1.85-.41,3.7-.81,5.56-1.18,1.86-.37,3.74-.72,5.61-1.05,1.88-.33,3.77-.63,5.66-.91h0c1.89-.28,3.8-.54,5.71-.78,1.91-.24,3.83-.45,5.75-.64h0c1.92-.19,3.85-.36,5.79-.5h0c1.94-.14,3.88-.26,5.83-.36h0c1.95-.1,3.91-.17,5.87-.22,1.96-.05,3.93-.07,5.91-.07Z"/>
  <g>
    <path class="cls-3" d="m372.82,364.38c10.83-8.26,21.94-16.36,34.39-22.03,13.34-6.07,28.21-8.52,42.58-10.84,14.82-2.39,29.76-3.57,44.64-5.41,13.87-1.72,27.78-4.12,40.82-9.33,13.04-5.21,25.1-12.96,33.55-24.34.81-1.08.18-2.79-.9-3.42-1.27-.74-2.61-.19-3.42.9-7.19,9.68-17.61,16.49-28.57,21.22-12.37,5.34-25.8,7.94-39.1,9.67-14.81,1.93-29.71,3.04-44.48,5.28-7.42,1.13-14.82,2.44-22.17,3.99s-14.11,3.28-20.83,5.98c-14.31,5.75-26.87,14.72-39.05,24.02-1.07.82-1.64,2.15-.9,3.42.62,1.06,2.34,1.72,3.42.9h0Z"/>
    <path class="cls-6" d="m184.68,145.48c-37.18,59.85,7.42,78.67,53.28,94.98.9.32,1.3,1.34.86,2.16-.73,1.37-1.26,2.84-1.56,4.52-.17.93-1.14,1.5-2.06,1.21-30.57-9.97-59.34-20.7-70.7-44.15-.67-1.38-2.75-1.1-2.99.4-18,110.1,100.34,59.17,166.57,143.38.84,1.07,2.59.64,2.81-.69,8.65-52.05-22.33-72.69-60.25-86.99-.71-.27-1.13-.99-.99-1.72.35-1.86,1.03-3.73,1.99-5.36.35-.6,1.06-.91,1.75-.74,28.56,6.96,57.61,31.38,64.5,54.79.45,1.52,2.66,1.49,3.05-.04,31.19-121.01-125.15-79.87-153.42-161.43-.43-1.24-2.15-1.42-2.84-.31Z"/>
    <path class="cls-6" d="m265.88,180.83c30.39,30.64,75.2,23.89,86.29,80.34.31,1.56,2.53,1.7,3.05.19,16.35-47.63,3.48-75.61-31.61-91.99-35.24-16.46-62.27-52.96,26.23-120.94,1.49-1.14.04-3.42-1.67-2.61-121.84,58.1-99.2,117.96-82.29,135.01Z"/>
    <path class="cls-6" d="m334.06,76.95c.6-1.56-1.39-2.81-2.59-1.64-57.41,55.77-25.97,72.52,6.35,92.14,29.13,17.68,42.56,47.07,26.16,95.03-.54,1.59,1.54,2.77,2.68,1.52,53.46-58.84,34.2-109.37,9.65-124.24-15.25-9.24-56.5-25.77-42.25-62.8Z"/>
    <path class="cls-6" d="m356.42,281.69c-1.27.64-1.1,2.48.28,2.86,23.19,6.35,61.96,37.18,97.35,10.31,31.3-23.76,20.18-54.52,46.44-79.55.81-.78.55-2.12-.51-2.54-22.36-8.87-43.68-10.8-53.6,20.2-.29.91.34,1.86,1.31,1.99.02,0,.04,0,.06,0,1.02.13,1.64,1.16,1.26,2.1-11.42,28.59-25.02,42.03-36.79,40.13-1.42-.23-1.84-2.03-.64-2.81,14.71-9.59,23.13-23.7,30.35-44.19,8.02-22.76,18.93-27.02,26.84-29.63,9.41-3.1,19.37-2.55,38.06,5.54.62.27,1.35.12,1.81-.37,7.87-8.38,16.18-14.87,26.69-18.64,1.29-.46,1.41-2.19.2-2.82-53.2-27.78-89.54-21.92-109.95,5.66s-30.67,72.35-69.16,91.76Z"/>
  </g>
  <path class="cls-6" d="m118.64,288.76h0c65.9,59.86,142.47,5.17,204.26,80.54-57.95-62.33-144.22-16.95-202.79-73.15h0c-.53-2.44-1.02-4.91-1.47-7.39m453.19-14.67c-60.19,76-160.66.91-227.45,111.25-66.89-110.51-167.73-35.02-227.89-111.58-.85-7.81-1.29-15.74-1.29-23.77,0-123.23,102.52-223.13,228.98-223.13s228.98,99.9,228.98,223.13c0,8.14-.46,16.18-1.33,24.09Zm-3.64,22.31c-58.57,55.8-144.65,10.66-202.52,72.9,61.71-75.27,138.15-20.83,204-80.31-.45,2.49-.95,4.96-1.48,7.41Zm-223.9,134.23c9.85-68.78,59.6-87.32,107.98-92.86,35.97-4.12,79.1-3.26,113.64-31.87-25.46,96.17-115.09,167.22-221.74,167.22s-196.41-71.16-221.79-167.44l.04.02c34.59,28.81,77.84,27.95,113.89,32.07,48.38,5.54,98.13,24.07,107.98,92.86Zm-.11-409c129.43,0,234.36,102.24,234.36,228.36s-104.93,228.36-234.36,228.36-234.36-102.24-234.36-228.36S214.74,21.64,344.17,21.64Z"/>
  <g>
    <path class="cls-2" d="m160.19,364.12l11.55-7.64-2-3.03,2.28-1.51,5.75,8.7-2.28,1.51-2-3.03-11.55,7.64-1.74-2.64Z"/>
    <path class="cls-2" d="m165.22,371.6l13.28-9.94,3.39,4.53c1.03,1.37,1.49,2.56,1.39,3.57-.05.5-.23.99-.56,1.48-.33.48-.8.96-1.42,1.42-.87.65-1.67,1-2.39,1.05-.73.05-1.38-.21-1.96-.78.3.72.32,1.43.06,2.13-.26.7-.8,1.36-1.62,1.97l-.17.13-1.71,1.39c-.24.18-.44.35-.61.54-.17.18-.32.37-.45.56-.22.34-.36.7-.41,1.07l-2.25-3c.17-.24.39-.49.67-.75.12-.11.3-.27.54-.48s.47-.4.69-.56l1.36-1.07.35-.26c.76-.57,1.17-1.14,1.2-1.69.04-.56-.33-1.34-1.09-2.37l-.65-.86-5.83,4.36-1.83-2.44Zm9.49-3.29l1.09,1.46c.55.73,1.07,1.13,1.58,1.2s1.13-.17,1.86-.72c.66-.49,1-.99,1.03-1.51s-.26-1.18-.87-2l-.93-1.24-3.76,2.81Z"/>
    <path class="cls-2" d="m191.56,380.97l-7.28,6.22c-.83.71-1.49,1.19-1.96,1.43-.47.24-.96.37-1.46.39-.73.03-1.45-.14-2.17-.52-.36-.2-.7-.44-1.04-.72-.34-.28-.68-.62-1.02-1.03-1.25-1.47-1.83-2.77-1.73-3.91s.93-2.38,2.49-3.71l8.7-7.44,2.05,2.4-8.5,7.26c-.97.83-1.52,1.51-1.66,2.05s.05,1.12.58,1.74c.52.61,1.06.88,1.62.82.56-.06,1.33-.51,2.31-1.35l8.46-7.24,2.03,2.37-.66.57c.08.01.16.02.24.01.35-.02.68-.16,1-.44l.1-.08-.77-.9,1.74-1.49,1.42,1.67-1.75,1.5c-.53.46-1.1.68-1.69.68-.38,0-.73-.11-1.06-.3Z"/>
    <path class="cls-2" d="m200.26,388.6c.08.01.17.01.25,0,.34-.04.67-.2.97-.5l.09-.09-.82-.84,1.64-1.6,1.53,1.57-1.65,1.61c-.5.49-1.05.75-1.64.78-.16.01-.32,0-.48-.03,0,.05-.01.09-.02.15-.13.61-.52,1.36-1.17,2.23-.3.41-.69.88-1.17,1.4s-1.03,1.1-1.66,1.71c-1.28,1.25-2.35,2.17-3.21,2.77-.86.6-1.61.96-2.23,1.08-.89.17-1.69.13-2.4-.14-.71-.27-1.45-.8-2.23-1.6-.77-.79-1.28-1.54-1.52-2.26-.25-.72-.28-1.52-.08-2.4.13-.62.52-1.36,1.14-2.22.31-.41.7-.88,1.18-1.41.48-.53,1.03-1.1,1.67-1.71,1.29-1.25,2.36-2.18,3.21-2.78.85-.6,1.6-.96,2.24-1.07.88-.18,1.67-.13,2.38.13s1.46.8,2.23,1.6c.77.79,1.28,1.54,1.54,2.26.14.42.21.88.21,1.37Zm-9.56.8c-1.96,1.91-3.08,3.22-3.35,3.95-.28.72-.11,1.4.51,2.03.59.61,1.25.79,1.98.54.72-.25,2.07-1.34,4.05-3.26,1.98-1.93,3.11-3.25,3.38-3.97.28-.72.11-1.39-.5-2.02-.6-.62-1.27-.8-2.01-.55-.36.13-.88.46-1.55,1s-1.5,1.3-2.51,2.27Zm9.63-3.99l-.96-.99-.15-4.55,1.97,2.02-.86,3.51Z"/>
    <path class="cls-2" d="m192.49,402.97l11.11-12.31,2.41,2.18-4.49,11.57,7.71-8.67,2.22,2-11.11,12.31-2.4-2.16,4.48-11.61-7.72,8.68-2.21-1.99Z"/>
    <path class="cls-2" d="m209.57,417.5l.96-1.58c-.75.42-1.45.6-2.1.52-.65-.08-1.37-.42-2.14-1.04-1.38-1.09-1.95-2.38-1.7-3.87.25-1.49,1.45-3.6,3.63-6.34,1.04-1.31,1.93-2.3,2.67-2.95.74-.66,1.42-1.08,2.03-1.26.75-.24,1.51-.26,2.28-.05.77.2,1.58.64,2.42,1.3,1.42,1.12,2.2,2.28,2.36,3.49.16,1.2-.31,2.5-1.41,3.88l-.26.33-2.31-1.83.11-.14c.62-.78.93-1.48.95-2.11.02-.63-.27-1.18-.85-1.65-.71-.57-1.42-.68-2.12-.35-.7.33-1.97,1.66-3.8,3.97-1.46,1.84-2.3,3.17-2.54,3.99-.24.82-.02,1.49.64,2.01.66.52,1.3.67,1.93.45.63-.22,1.36-.85,2.18-1.89l.35-.45-1.72-1.36,1.65-2.08,4.1,3.25-5.62,7.09-1.67-1.33Z"/>
    <path class="cls-2" d="m218.78,424.24l9.11-13.86,4.58,3.02c1.39.92,2.2,1.88,2.42,2.9.11.51.07,1.06-.1,1.66-.17.6-.49,1.25-.96,1.96-.9,1.37-1.9,2.18-2.99,2.42-1.09.24-2.31-.09-3.66-.97l-1.92-1.26-3.86,5.88-2.62-1.73Zm7.67-6.12l1.1.73c.82.54,1.49.76,2.04.66.54-.09,1.06-.52,1.56-1.29.5-.77.7-1.4.6-1.89-.1-.5-.59-1.02-1.45-1.59l-1.14-.75-2.72,4.13Z"/>
    <path class="cls-2" d="m229.58,431.25l8.24-14.39,2.72,1.56-3.23,5.64,3.76,2.15,3.23-5.64,2.72,1.56-8.24,14.39-2.72-1.56,3.74-6.52-3.76-2.15-3.74,6.52-2.72-1.56Z"/>
    <path class="cls-2" d="m245.24,430.57c.79-1.61,1.49-2.84,2.09-3.7.6-.85,1.19-1.44,1.75-1.76.77-.46,1.53-.69,2.29-.68s1.64.26,2.64.76c.99.49,1.72,1.02,2.2,1.61.48.59.77,1.34.89,2.24.08.62-.04,1.45-.35,2.49-.15.49-.36,1.06-.63,1.72-.27.66-.6,1.38-.99,2.17-.79,1.6-1.49,2.83-2.09,3.69-.61.86-1.19,1.45-1.74,1.77-.78.46-1.55.69-2.31.67-.75-.01-1.63-.27-2.63-.76-.99-.49-1.72-1.02-2.19-1.62s-.77-1.34-.89-2.23c-.08-.63.03-1.46.33-2.48.15-.49.37-1.07.64-1.73.27-.66.6-1.38.99-2.17Zm2.9,1.42c-1.21,2.46-1.82,4.07-1.83,4.85-.02.78.37,1.36,1.16,1.75.76.38,1.45.32,2.04-.15.6-.48,1.51-1.96,2.72-4.43,1.22-2.48,1.84-4.11,1.85-4.88.02-.77-.36-1.35-1.15-1.73-.78-.38-1.47-.33-2.08.16-.3.25-.67.73-1.12,1.46s-.98,1.73-1.6,2.98Zm3.6-9.02l3.07-1.91,2.02.99.37,3.6-1.23-.6-.79-2.19-2.21.71-1.23-.6Zm7.36-2.01l-1.15-.56.09-.18c.24-.5.57-.82.98-.97.41-.15.88-.09,1.41.17.51.25.84.58.99,1s.11.86-.11,1.31c-.09.17-.18.33-.3.45-.11.13-.24.24-.38.33-.17.12-.41.23-.72.36-.31.12-.51.21-.61.26-.15.07-.28.17-.39.29-.11.12-.21.27-.3.44l-.03.07-.04.11-1.12-.55.05-.16.08-.16c.07-.14.14-.26.21-.36s.15-.2.23-.29c.16-.17.39-.32.67-.45l.32-.14c.53-.22.89-.51,1.07-.88.1-.2.13-.36.11-.49-.03-.13-.1-.22-.21-.28-.12-.06-.25-.06-.39.01-.13.07-.26.24-.39.49l-.09.17Z"/>
    <path class="cls-2" d="m262.01,447.32l5.03-12.9-3.39-1.32.99-2.55,9.72,3.79-.99,2.55-3.39-1.32-5.03,12.9-2.95-1.15Z"/>
    <path class="cls-2" d="m270.42,450.53l5.12-15.77,2.99.97-2.01,6.19,4.12,1.34,2.01-6.19,2.99.97-5.12,15.77-2.99-.97,2.32-7.15-4.12-1.34-2.32,7.15-2.99-.97Z"/>
    <path class="cls-2" d="m285.6,446.66c.44-1.74.87-3.09,1.29-4.04.42-.96.87-1.65,1.36-2.08.66-.61,1.36-.99,2.1-1.13.75-.14,1.66-.08,2.74.2,1.07.27,1.89.65,2.48,1.13.59.48,1.03,1.15,1.33,2.01.2.59.26,1.43.17,2.51-.05.51-.14,1.11-.27,1.81-.13.7-.31,1.47-.53,2.32-.44,1.73-.87,3.08-1.3,4.04-.42.96-.87,1.66-1.34,2.09-.67.61-1.38.99-2.12,1.13-.74.14-1.65.07-2.73-.2-1.07-.27-1.89-.65-2.48-1.13-.59-.48-1.03-1.15-1.32-2.01-.21-.6-.27-1.43-.18-2.49.05-.51.14-1.12.27-1.82.13-.7.31-1.48.53-2.33Zm3.13.8c-.68,2.65-.95,4.36-.8,5.12.14.76.64,1.25,1.49,1.47.83.21,1.48.02,1.97-.57.49-.59,1.07-2.22,1.76-4.89.68-2.68.96-4.4.82-5.15-.14-.76-.63-1.25-1.48-1.46-.84-.21-1.51-.02-2,.58-.24.3-.51.86-.8,1.66s-.61,1.89-.96,3.25Zm1.68-9.56l2.62-2.5,2.18.56,1.1,3.45-1.32-.34-1.22-1.98-2.02,1.15-1.32-.34Z"/>
    <path class="cls-2" d="m297.33,458.11l3.08-16.3,3.19.6,2.18,12.22,2.07-11.41,2.93.55-3.08,16.3-3.17-.6-2.21-12.25-2.07,11.43-2.92-.55Z"/>
    <path class="cls-2" d="m319.45,461.64v-1.84c-.42.75-.93,1.26-1.53,1.54-.6.27-1.39.35-2.37.22-1.75-.22-2.9-1.03-3.47-2.42-.56-1.4-.63-3.83-.19-7.3.21-1.66.46-2.96.75-3.91.29-.95.65-1.66,1.08-2.13.52-.59,1.16-1,1.92-1.23s1.68-.27,2.74-.14c1.79.22,3.07.81,3.83,1.75.76.95,1.03,2.29.81,4.05l-.05.42-2.93-.37.02-.17c.12-.98.03-1.75-.28-2.3-.31-.55-.84-.87-1.58-.96-.9-.11-1.57.16-1.99.8-.43.65-.82,2.44-1.19,5.37-.29,2.33-.32,3.91-.1,4.73.22.82.75,1.28,1.59,1.39.83.1,1.46-.1,1.88-.62s.72-1.43.88-2.75l.07-.57-2.18-.27.33-2.63,5.19.65-1.12,8.98-2.12-.26Z"/>
    <path class="cls-2" d="m330.82,462.65l.59-16.58,3.25.12,4,11.75.32-11.59,2.98.11-.59,16.58-3.23-.12-4.03-11.77-.33,11.62-2.97-.11Z"/>
    <path class="cls-2" d="m343.56,463.06l3.43-16.67,4.24-.1,4.25,16.49-3.4.08-.94-4.15-3.63.09-.72,4.19-3.23.08Zm2.46-20.6l1.26-.03c.08.45.27.78.56.99.29.21.7.31,1.24.29.53-.01.94-.13,1.22-.35.28-.22.46-.56.51-1.02l1.26-.03c-.08,1.06-.35,1.85-.83,2.35-.47.5-1.18.77-2.12.79-.92.02-1.63-.21-2.13-.69-.5-.48-.82-1.25-.96-2.31Zm1.92,13.84l2.69-.06-1.52-6.92-1.17,6.99Z"/>
    <path class="cls-2" d="m357.72,462.64l-1.38-16.53,3.24-.27,5.37,11.19-1.05-11.55,2.97-.25,1.38,16.53-3.22.27-5.4-11.21,1.06,11.57-2.96.25Z"/>
    <path class="cls-2" d="m380,460.13l-.5-1.78c-.2.83-.56,1.46-1.06,1.89-.5.42-1.24.71-2.22.85-1.74.26-3.07-.21-3.99-1.41-.92-1.2-1.63-3.53-2.14-6.98-.24-1.66-.35-2.98-.32-3.97.03-.99.19-1.77.47-2.34.34-.71.85-1.28,1.53-1.7.68-.42,1.54-.71,2.61-.87,1.79-.26,3.17-.04,4.16.67s1.6,1.94,1.86,3.68l.06.42-2.92.43-.03-.17c-.14-.98-.44-1.69-.89-2.14-.45-.45-1.04-.61-1.78-.5-.9.13-1.47.57-1.71,1.31-.24.74-.14,2.57.29,5.49.34,2.32.73,3.85,1.16,4.58.43.73,1.07,1.04,1.9.91.83-.12,1.38-.49,1.65-1.1.27-.61.31-1.57.12-2.88l-.08-.56-2.17.32-.39-2.62,5.18-.76,1.32,8.95-2.11.31Z"/>
    <path class="cls-2" d="m391.21,458.05l-3.83-16.14,3.01-.71,1.6,6.74,2.15-7.63,3.42-.81-2.58,7.69,6.68,8.39-3.38.8-4.55-5.97-.67,2.04,1.16,4.89-3.01.71Z"/>
    <path class="cls-2" d="m403.72,454.99l-4.81-15.87,3-.91,1.89,6.22,4.14-1.26-1.89-6.23,3-.91,4.81,15.87-3,.91-2.18-7.19-4.14,1.26,2.18,7.19-3,.91Z"/>
    <path class="cls-2" d="m417.02,450.79l-5.55-15.63,2.98-1.06,5.55,15.63-2.98,1.06Z"/>
    <path class="cls-2" d="m423.1,448.61l-6.18-15.39,8.09-3.25,1.03,2.56-5.17,2.08,1.43,3.56,4.81-1.93.98,2.44-4.81,1.93,1.7,4.24,5.29-2.13,1.04,2.6-8.21,3.3Zm-5.57-17.13l.63-3.56,2.08-.84,2.92,2.13-1.27.51-2.16-.87-.95,2.12-1.27.51Zm4.59-7.6l2.62-1.05-1.97,4.1-1.28.51.63-3.56Z"/>
    <path class="cls-2" d="m426.87,429.18l2.86-1.35,4.77,10.11c.54,1.15,1.06,1.86,1.54,2.14s1.1.25,1.83-.1c.72-.34,1.13-.79,1.22-1.34.09-.55-.14-1.41-.69-2.58l-4.75-10.07,2.82-1.33,4.88,10.35c.47.99.76,1.75.86,2.27.11.52.11,1.03,0,1.51-.16.71-.52,1.36-1.07,1.96-.28.29-.61.56-.97.81s-.78.49-1.26.71c-1.75.82-3.16,1.04-4.23.64-1.07-.4-2.05-1.53-2.92-3.38l-4.88-10.35Z"/>
    <path class="cls-2" d="m447.95,440.98l-.52-.99c.39-.25.62-.6.7-1.05s0-.91-.26-1.39l-.08-.15-1.35.72-1.39-2.63,2.51-1.33,1.4,2.65c.43.81.55,1.58.37,2.33-.18.74-.64,1.36-1.38,1.85Z"/>
    <path class="cls-2" d="m451.32,423.31l-3.16-5.05,4.31-2.69c.87-.54,1.62-.91,2.23-1.09.61-.18,1.19-.21,1.73-.09.8.16,1.54.55,2.21,1.16.32.3.69.72,1.11,1.26.42.54.86,1.2,1.34,1.96,1.26,2.02,2.08,3.48,2.44,4.38s.56,1.74.59,2.53c.03.79-.19,1.49-.64,2.09-.45.61-1.4,1.36-2.84,2.26l-3.69,2.31-4-6.39-1.31.82-1.64-2.62,1.31-.82Zm4.26.98l2.7,4.32,1.19-.74c.61-.38,1.01-.69,1.19-.92.19-.23.29-.5.3-.8.01-.52-.13-1.13-.42-1.85-.29-.71-.87-1.76-1.74-3.14-.86-1.38-1.55-2.34-2.06-2.88-.51-.54-1.01-.87-1.5-.99-.25-.06-.52-.05-.82.05s-.7.3-1.21.62l-1.15.72,1.87,3,1.55-.97,1.64,2.62-1.55.97Z"/>
    <path class="cls-2" d="m468.67,424.88l-9.67-13.47,2.55-1.83,3.79,5.28,3.52-2.52-3.79-5.28,2.55-1.83,9.67,13.47-2.55,1.83-4.38-6.11-3.52,2.52,4.38,6.11-2.55,1.83Z"/>
    <path class="cls-2" d="m486.15,411.37c-.08.18-.18.36-.3.54-.12.18-.26.38-.42.58-.32.38-.69.75-1.11,1.09-.85.7-1.65,1.14-2.38,1.33s-1.54.15-2.4-.12c-.61-.19-1.33-.65-2.14-1.36-.81-.71-1.76-1.74-2.85-3.07-1.13-1.38-1.96-2.53-2.48-3.43-.52-.9-.82-1.68-.89-2.33-.1-.89,0-1.68.33-2.36s.92-1.38,1.78-2.09c.85-.7,1.65-1.14,2.38-1.33.73-.19,1.54-.15,2.41.12.6.19,1.31.64,2.13,1.36.39.34.82.77,1.3,1.29.48.51,1,1.11,1.56,1.79,1.18,1.44,2.03,2.62,2.57,3.53s.8,1.66.81,2.22l2.64.23-.23,2.25-2.7-.24Zm-2.89-.26l-1.3-.13.23-2.21.95.1c-.32-.53-.52-.85-.6-.98-.08-.12-.2-.28-.35-.47-.16-.19-.38-.48-.67-.85-.28-.38-.47-.61-.55-.71-1.96-2.39-3.3-3.77-4.01-4.13-.71-.36-1.42-.26-2.1.3-.67.55-.91,1.2-.72,1.96.1.37.39.92.87,1.63s1.16,1.61,2.05,2.69c1.71,2.08,2.91,3.31,3.6,3.67.7.37,1.36.29,2-.23l.24-.23c.09-.07.21-.21.37-.42Z"/>
    <path class="cls-2" d="m496.83,401.98l-1.42-1.18c.31.8.37,1.52.2,2.15-.17.63-.62,1.29-1.35,1.96-1.29,1.2-2.65,1.57-4.08,1.11-1.43-.47-3.34-1.98-5.73-4.53-1.14-1.22-1.98-2.25-2.52-3.08s-.85-1.56-.94-2.2c-.12-.78-.03-1.53.29-2.27.32-.73.87-1.46,1.65-2.2,1.32-1.23,2.59-1.84,3.8-1.81s2.42.68,3.62,1.97l.29.31-2.16,2.01-.12-.13c-.68-.72-1.32-1.14-1.95-1.25-.62-.11-1.21.09-1.75.6-.67.62-.89,1.3-.66,2.04s1.34,2.19,3.36,4.35c1.6,1.72,2.79,2.75,3.56,3.11.77.36,1.47.24,2.09-.33.61-.57.85-1.19.73-1.84-.13-.66-.64-1.47-1.54-2.44l-.39-.42-1.6,1.5-1.81-1.94,3.83-3.57,6.17,6.62-1.56,1.46Z"/>
    <path class="cls-2" d="m496.82,395.05l-1.85-1.79,3.74-3.86,1.85,1.79-3.74,3.86Z"/>
    <path class="cls-2" d="m506.16,392.52l-12.47-10.93,2.07-2.36,4.89,4.29,2.85-3.25-4.89-4.29,2.07-2.36,12.47,10.93-2.07,2.36-5.65-4.96-2.85,3.26,5.65,4.96-2.07,2.36Z"/>
    <path class="cls-2" d="m514.8,372.87l1.88-2.43.26.19.26.19c1.52,1.17,2.4,2.37,2.63,3.59.23,1.22-.18,2.5-1.22,3.86-.5.65-1.01,1.14-1.51,1.47-.51.33-1.06.53-1.67.6-.79.11-1.66-.06-2.61-.49s-2.41-1.41-4.38-2.92c-1.37-1.06-2.41-1.95-3.12-2.67s-1.17-1.35-1.37-1.88c-.32-.82-.41-1.6-.27-2.35.14-.75.53-1.53,1.17-2.37,1.05-1.36,2.16-2.08,3.34-2.17,1.18-.08,2.53.46,4.06,1.64l-1.87,2.43-.32-.24c-.72-.55-1.34-.85-1.86-.88-.53-.03-.98.19-1.35.68-.46.59-.53,1.19-.21,1.78s1.57,1.74,3.75,3.42c2.35,1.82,3.87,2.82,4.55,3.01s1.25-.02,1.72-.62c.43-.55.52-1.09.3-1.63-.23-.53-.88-1.22-1.96-2.05l-.18-.14Z"/>
    <path class="cls-2" d="m523.3,371.46l-13.83-9.15,2.63-3.97,10.24,3.99-7.67-7.87,2.63-3.97,13.83,9.15-1.67,2.52-12.23-8.17,10.52,10.76-1.07,1.62-14.01-5.48,12.31,8.06-1.67,2.53Z"/>
  </g>
  <g>
    <path class="cls-5" d="m741.88,204.47v-18.27h12.13c2.4,0,4.74.27,7.03.82,2.56.6,4.73,1.47,6.5,2.6,6.31,4.01,9.47,9.82,9.47,17.42s-3.16,13.12-9.47,17.2c-1.77,1.13-3.95,2.01-6.53,2.62-2.29.53-4.62.79-7,.79h-12.13v-19.44h-3.35v-3.75h3.35Zm4.14,3.75v15.7h6.92c1.37,0,2.56-.04,3.57-.11,1.24-.09,2.38-.25,3.4-.46,2.4-.51,4.53-1.44,6.39-2.79,2.09-1.49,3.71-3.52,4.88-6.07,1.1-2.41,1.65-4.94,1.65-7.6,0-5.91-2.36-10.48-7.08-13.73-1.87-1.29-4.05-2.18-6.56-2.65-1.06-.2-2.24-.35-3.54-.44-1.01-.05-2.21-.08-3.62-.08h-6.01v14.49h12.62v3.75h-12.62Z"/>
    <path class="cls-5" d="m815.95,227.65l-6.04-13.95h-19.32l-6.06,13.95h-4.34l17.76-41.45h4.67l17.87,41.45h-4.53Zm-15.64-36.72l-8.15,19.03h16.14l-7.99-19.03Zm-2.06,47.25v-7.08h4.17v7.08h-4.17Z"/>
    <path class="cls-5" d="m825.36,227.65v-41.45h4.17v41.45h-4.17Z"/>
    <path class="cls-5" d="m879.29,227.65v-19.44h-21.52v19.44h-4.17v-41.45h4.17v18.27h21.52v-18.27h4.14v41.45h-4.14Z"/>
    <path class="cls-5" d="m927.56,222.16c-4.32,4.16-9.47,6.23-15.45,6.23s-11.01-2.06-15.37-6.18c-4.41-4.19-6.61-9.21-6.61-15.07s2.15-11.14,6.45-15.37c4.28-4.19,9.46-6.29,15.53-6.29s11.16,2.08,15.48,6.23c4.37,4.19,6.56,9.26,6.56,15.2s-2.2,11.02-6.59,15.23Zm-2.85-27.7c-3.51-3.48-7.71-5.22-12.6-5.22s-9.15,1.76-12.62,5.28c-3.46,3.52-5.19,7.73-5.19,12.63s1.77,8.89,5.32,12.33c3.51,3.43,7.68,5.14,12.49,5.14s9.06-1.72,12.57-5.17c3.53-3.45,5.3-7.6,5.3-12.47s-1.76-9.04-5.27-12.52Zm-14.66,43.72v-7.08h4.17v7.08h-4.17Z"/>
    <path class="cls-5" d="m979.87,216.8c-4.23,7.73-10.61,11.59-19.16,11.59-6,0-11.12-2.07-15.37-6.21-4.26-4.17-6.39-9.24-6.39-15.2s2.1-11.12,6.31-15.26c4.19-4.12,9.32-6.18,15.4-6.18,6.57,0,12.04,2.46,16.41,7.38,1.21,1.35,2.09,2.66,2.63,3.94h-4.67c-3.4-5.05-8.22-7.57-14.46-7.57-4.74,0-8.85,1.79-12.32,5.36-3.42,3.52-5.13,7.65-5.13,12.39s1.75,8.76,5.24,12.28c3.51,3.54,7.61,5.3,12.29,5.3,2.91,0,5.64-.71,8.21-2.13,2.38-1.35,4.49-3.24,6.34-5.69h4.67Z"/>
    <path class="cls-5" d="m1037.95,222.38c1.83,1.55,3.9,2.3,6.2,2.24v3.77c-3.55,0-6.64-1.19-9.28-3.58-3.62,2.39-7.79,3.58-12.49,3.58-6.06,0-11.27-2.03-15.64-6.1-4.48-4.14-6.72-9.21-6.72-15.2s2.2-11.34,6.59-15.48c4.3-4.08,9.58-6.12,15.84-6.12s11.61,2.05,15.89,6.15c4.32,4.16,6.48,9.37,6.48,15.64,0,5.82-2.29,10.85-6.86,15.09Zm-2.61-27.95c-3.53-3.46-7.81-5.2-12.84-5.2s-9.43,1.74-12.98,5.22c-3.55,3.5-5.32,7.79-5.32,12.88,0,1.62.24,3.19.71,4.7,2.87-.95,5.8-1.42,8.78-1.42,4.24,0,8.1.81,11.55,2.43,1.56.73,3.17,1.68,4.86,2.84,1.41.98,3.02,2.25,4.83,3.8,1.79-1.75,3.17-3.65,4.14-5.69,1.06-2.22,1.59-4.51,1.59-6.86,0-4.99-1.77-9.23-5.32-12.71Zm-5.05,26.44c-.6-.47-1.08-.85-1.43-1.12-1.13-.88-2.1-1.54-2.88-2-3.77-2.24-8.08-3.36-12.93-3.36-2.45,0-4.6.39-6.45,1.18.53,1.06,1.34,2.15,2.42,3.28,3.57,3.85,8.06,5.77,13.48,5.77,3.57,0,6.62-.89,9.17-2.68l-1.37-1.07Z"/>
    <path class="cls-5" d="m1079.25,212.04c0,1.55-.11,3.02-.33,4.4-.27,1.62-.69,3.03-1.23,4.21-2.42,5.16-6.61,7.74-12.6,7.74s-10.18-2.58-12.6-7.74c-.55-1.18-.95-2.59-1.21-4.21-.24-1.39-.36-2.85-.36-4.4v-25.84h4.17v25.84c0,1.35.09,2.62.27,3.83.24,1.53.61,2.75,1.12,3.66,1.87,3.39,4.73,5.09,8.59,5.09s6.72-1.7,8.59-5.09c.51-.91.89-2.13,1.13-3.66.2-1.2.3-2.48.3-3.83v-25.84h4.14v25.84Z"/>
    <path class="cls-5" d="m1123.38,222.16c-4.32,4.16-9.47,6.23-15.45,6.23s-11.01-2.06-15.37-6.18c-4.41-4.19-6.61-9.21-6.61-15.07s2.15-11.14,6.45-15.37c4.28-4.19,9.46-6.29,15.53-6.29s11.16,2.08,15.48,6.23c4.37,4.19,6.56,9.26,6.56,15.2s-2.2,11.02-6.59,15.23Zm-2.85-27.7c-3.51-3.48-7.71-5.22-12.6-5.22s-9.15,1.76-12.62,5.28c-3.46,3.52-5.19,7.73-5.19,12.63s1.77,8.89,5.32,12.33c3.51,3.43,7.68,5.14,12.49,5.14s9.06-1.72,12.57-5.17c3.53-3.45,5.3-7.6,5.3-12.47s-1.76-9.04-5.27-12.52Zm-7.6-11.7l-4.83-4.1-4.94,4.1h-5.13l8.15-7h3.73l8.01,7h-4.99Zm2.36-3.58l-1.87-3.23,11.2-6.12,1.81,3.36-11.14,5.99Z"/>
    <path class="cls-5" d="m1175.69,216.8c-4.23,7.73-10.61,11.59-19.16,11.59-6,0-11.12-2.07-15.37-6.21-4.26-4.17-6.39-9.24-6.39-15.2s2.1-11.12,6.31-15.26c4.19-4.12,9.32-6.18,15.4-6.18,6.57,0,12.04,2.46,16.41,7.38,1.21,1.35,2.09,2.66,2.63,3.94h-4.67c-3.4-5.05-8.22-7.57-14.46-7.57-4.74,0-8.85,1.79-12.32,5.36-3.42,3.52-5.13,7.65-5.13,12.39s1.75,8.76,5.24,12.28c3.51,3.54,7.61,5.3,12.29,5.3,2.91,0,5.64-.71,8.21-2.13,2.38-1.35,4.49-3.24,6.34-5.69h4.67Z"/>
    <path class="cls-5" d="m1240.13,208.62c-.46,5.63-2.82,10.35-7.08,14.14-4.23,3.76-9.19,5.63-14.9,5.63s-11.18-2.08-15.59-6.23c-4.48-4.23-6.72-9.31-6.72-15.23s2.22-11.06,6.67-15.26c4.35-4.12,9.55-6.18,15.59-6.18,6.86,0,12.52,2.53,16.99,7.6,1.21,1.35,2.1,2.73,2.69,4.16h-4.83c-1.43-2.46-3.54-4.43-6.34-5.91-2.69-1.4-5.51-2.11-8.45-2.11-4.96,0-9.21,1.72-12.76,5.17-3.59,3.46-5.38,7.66-5.38,12.58s1.81,9.15,5.43,12.58c3.59,3.37,7.88,5.06,12.87,5.06,3.75,0,7.24-1.14,10.46-3.42,3.33-2.35,5.45-5.3,6.37-8.83h-23.22v-3.75h28.21Z"/>
    <path class="cls-5" d="m1246.85,227.65v-41.45h4.17v41.45h-4.17Z"/>
    <path class="cls-5" d="m1291.7,227.65l-6.04-13.95h-19.32l-6.06,13.95h-4.34l17.76-41.45h4.67l17.87,41.45h-4.53Zm-15.64-36.72l-8.15,19.03h16.14l-7.99-19.03Z"/>
    <path class="cls-5" d="m1326.47,189.97v37.68h-4.17v-37.68h-9.55v-3.77h23.22v3.77h-9.5Z"/>
    <path class="cls-5" d="m1362.86,208.57c-1.43.97-3.15,1.63-5.16,2-.84.15-1.77.26-2.77.33-.81.05-1.74.08-2.8.08h-7.41v16.68h-4.17v-41.45h11.58c1.06,0,1.99.03,2.8.08,1.01.07,1.93.18,2.77.33,2.01.38,3.73,1.06,5.16,2.02,3.44,2.33,5.16,5.65,5.16,9.95s-1.72,7.63-5.16,9.98Zm-3.82-17.53c-1.04-.51-2.2-.83-3.49-.96l-1.78-.11h-9.06v17.23h9.06l1.78-.11c1.28-.13,2.44-.44,3.49-.93,3.22-1.53,4.83-4.06,4.83-7.57s-1.61-6.03-4.83-7.55Z"/>
    <path class="cls-5" d="m1367.06,227.65v-7.05h4.17v7.05h-4.17Z"/>
    <path class="cls-5" d="m1422.42,227.65v-19.44h-21.52v19.44h-4.17v-41.45h4.17v18.27h21.52v-18.27h4.14v41.45h-4.14Z"/>
    <path class="cls-5" d="m1470.69,222.16c-4.32,4.16-9.47,6.23-15.45,6.23s-11.01-2.06-15.37-6.18c-4.41-4.19-6.61-9.21-6.61-15.07s2.15-11.14,6.45-15.37c4.28-4.19,9.46-6.29,15.53-6.29s11.16,2.08,15.48,6.23c4.37,4.19,6.56,9.26,6.56,15.2s-2.2,11.02-6.59,15.23Zm-2.86-27.7c-3.51-3.48-7.71-5.22-12.6-5.22s-9.15,1.76-12.62,5.28c-3.46,3.52-5.19,7.73-5.19,12.63s1.77,8.89,5.32,12.33c3.51,3.43,7.67,5.14,12.49,5.14s9.06-1.72,12.57-5.17c3.53-3.45,5.3-7.6,5.3-12.47s-1.76-9.04-5.27-12.52Zm-7.6-11.7l-4.83-4.1-4.94,4.1h-5.13l8.15-7h3.73l8.01,7h-4.99Zm1.37-6.04l-11.14-5.99,1.81-3.36,11.17,6.12-1.84,3.23Z"/>
    <path class="cls-5" d="m1538.56,216.8c-4.23,7.73-10.61,11.59-19.16,11.59-6,0-11.12-2.07-15.37-6.21-4.26-4.17-6.39-9.24-6.39-15.2s2.1-11.12,6.31-15.26c4.19-4.12,9.32-6.18,15.4-6.18,6.57,0,12.04,2.46,16.41,7.38,1.21,1.35,2.09,2.66,2.63,3.94h-4.67c-3.4-5.05-8.22-7.57-14.46-7.57-4.74,0-8.85,1.79-12.32,5.36-3.42,3.52-5.13,7.65-5.13,12.39s1.75,8.76,5.24,12.28c3.51,3.54,7.61,5.3,12.3,5.3,2.91,0,5.64-.71,8.21-2.13,2.38-1.35,4.49-3.24,6.34-5.69h4.67Z"/>
    <path class="cls-5" d="m1570.86,227.65v-19.44h-21.52v19.44h-4.17v-41.45h4.17v18.27h21.52v-18.27h4.14v41.45h-4.14Z"/>
    <path class="cls-5" d="m1583.57,183.85l-1.87-3.23,11.2-6.12,1.78,3.36-11.12,5.99Zm0,43.8v-41.45h4.14v41.45h-4.14Z"/>
    <path class="cls-5" d="m1650.73,227.65v-36.91h-.11l-15.56,36.91h-3.54l-15.45-36.91h-.11v36.91h-4.17v-41.45h6.39l15.12,35.3,15.18-35.3h6.42v41.45h-4.17Z"/>
    <path class="cls-5" d="m1663.43,227.65v-41.45h4.17v41.45h-4.17Z"/>
    <path class="cls-5" d="m1705.01,227.65l-24.67-36.45h-.11v36.45h-4.17v-41.45h5.63l23.22,34.4h.11v-34.4h4.14v41.45h-4.14Z"/>
    <path class="cls-5" d="m1743.38,227.65v-19.44h-21.52v19.44h-4.17v-41.45h4.17v18.27h21.52v-18.27h4.14v41.45h-4.14Z"/>
    <path class="cls-5" d="m666.34,292.61v39.05h-12.9v-39.05h-9.96v-11.29h32.76v11.29h-9.9Z"/>
    <path class="cls-5" d="m705.56,331.65l-11.66-16.24h-.13v16.24h-12.36v-50.34h15.96c1.69,0,3.04.03,4.07.1,1.51.07,2.87.21,4.07.43,3.02.51,5.5,1.54,7.43,3.09,4.15,3.32,6.23,7.9,6.23,13.75,0,4.01-1.1,7.45-3.3,10.33-2.29,3.05-5.38,4.89-9.26,5.51l13.7,17.13h-14.73Zm-1.27-37.49c-1.44-1.04-3.39-1.56-5.83-1.56h-4.7v14.01h4.57c5.64,0,8.46-2.4,8.46-7.21,0-2.32-.83-4.07-2.5-5.25Z"/>
    <path class="cls-5" d="m764.58,311.73c0,3.43-.29,6.21-.87,8.33-.78,2.72-2.17,5.09-4.17,7.11-3.58,3.63-8.29,5.45-14.13,5.45-2.84,0-5.47-.41-7.86-1.23-2.71-.93-4.93-2.31-6.67-4.15-2.13-2.24-3.55-4.63-4.27-7.17-.31-1.15-.53-2.45-.67-3.88-.09-1.15-.13-2.63-.13-4.45v-30.41h12.9v30.41c0,1.33.07,2.47.2,3.42.18,1.22.48,2.25.9,3.09,1.02,2.06,2.84,3.09,5.47,3.09s4.53-1.01,5.47-3.02c.38-.82.64-1.84.8-3.05.09-.88.13-2.06.13-3.52v-30.41h12.9v30.41Zm-1.3-38.78h7.63v7.8c-.31,3.21-1.37,5.6-3.18,7.17-1.81,1.57-3.86,2.49-6.15,2.76l-3.3.27.23-4.78,1.3.03c.53-.02,1.42-.27,2.67-.73,2.31-1.13,3.47-2.78,3.47-4.95h-2.67v-7.57Z"/>
    <path class="cls-5" d="m818.27,289.35c4.27,4.76,6.4,10.47,6.4,17.13,0,7.39-2.61,13.61-7.83,18.66-5.15,4.98-11.46,7.47-18.93,7.47s-13.42-2.45-18.6-7.34c-5.29-4.96-7.93-11.01-7.93-18.16,0-3.81.65-7.39,1.97-10.76.69-1.79,1.78-3.67,3.27-5.64,5.27-6.88,12.39-10.33,21.36-10.33,6.27,0,11.73,1.78,16.4,5.35.22-.09.46-.18.7-.27,2.31-1.13,3.47-2.78,3.47-4.95h-2.67v-7.57h7.63v7.8c-.31,3.21-1.37,5.6-3.17,7.17-.67.55-1.35,1.03-2.07,1.43Zm-10.26,6.84c-2.62-3.01-5.94-4.52-9.96-4.52s-7.34,1.46-9.96,4.38c-2.53,2.81-3.8,6.24-3.8,10.29s1.27,7.64,3.8,10.49c2.64,2.99,6.02,4.48,10.13,4.48s7.21-1.5,9.83-4.52c2.49-2.86,3.73-6.28,3.73-10.26s-1.26-7.5-3.77-10.36Zm-4.5-17.3l-16.86-7.34,3.5-7.97,16.5,8.7-3.13,6.61Z"/>
    <path class="cls-5" d="m863.03,331.65l-19.23-30.61-.17.07.37,30.55h-12.36v-50.34h11.13l19.53,31.64.13-.13-.57-31.51h12.36v50.34h-11.2Z"/>
    <path class="cls-5" d="m935.01,305.69c0,7.73-2.56,14.16-7.67,19.29-5.13,5.14-11.56,7.7-19.3,7.7s-13.8-2.53-19-7.6c-5.22-5.11-7.83-11.38-7.83-18.79s2.65-13.65,7.96-18.63c5.2-4.85,11.55-7.27,19.06-7.27,5.6,0,10.79,1.63,15.56,4.88,4.95,3.37,8.19,7.67,9.7,12.92h-14.46c-2.44-4.34-6.15-6.51-11.13-6.51-4.04,0-7.38,1.44-10,4.32-2.53,2.79-3.8,6.22-3.8,10.29s1.23,7.79,3.7,10.62c2.6,2.99,5.99,4.48,10.16,4.48,2.91,0,5.42-.65,7.53-1.96,2.27-1.42,3.78-3.46,4.53-6.14h-15.06v-10.26h29.96c.02.4.04.84.07,1.33v1.33Z"/>
    <path class="cls-5" d="m999.43,305.49c-.98,2.52-2.31,4.54-4,6.04-2.02,1.75-4.32,2.94-6.9,3.59-1.98.51-4.59.76-7.83.76h-5.6v15.77h-12.36v-50.34h16.53c1.6,0,2.94.03,4.03.1,1.51.09,2.89.24,4.13.46,3.07.53,5.53,1.57,7.4,3.12,3.95,3.34,5.93,7.78,5.93,13.31,0,2.46-.44,4.85-1.33,7.17Zm-13.7-11.89c-1.29-.66-3.24-1-5.87-1h-4.77v11.99h5.23c2.49,0,4.37-.38,5.63-1.13,1.62-.95,2.43-2.59,2.43-4.91s-.89-4.02-2.67-4.95Z"/>
    <path class="cls-5" d="m1035.55,331.65v-20.12h-16.53v20.12h-12.9v-50.34h12.9v18.93h16.53v-18.93h12.9v50.34h-12.9Z"/>
    <path class="cls-5" d="m1100.87,325.15c-5.18,4.98-11.49,7.47-18.93,7.47s-13.45-2.45-18.63-7.34c-5.29-4.96-7.93-11.01-7.93-18.16,0-3.81.65-7.39,1.97-10.76.69-1.79,1.79-3.67,3.3-5.64,5.24-6.88,12.36-10.33,21.36-10.33,7.42,0,13.71,2.5,18.86,7.5,5.2,5.03,7.8,11.22,7.8,18.59s-2.6,13.61-7.8,18.66Zm-15.66-48.24l-3.13-3.92-3.13,3.92h-11.06l10.63-11.29h7.37l10.26,11.29h-10.93Zm6.83,19.29c-2.64-3.01-5.97-4.52-9.96-4.52s-7.38,1.46-10,4.38c-2.53,2.81-3.8,6.24-3.8,10.29s1.28,7.64,3.83,10.49c2.64,2.99,6.01,4.48,10.1,4.48s7.21-1.5,9.83-4.52c2.49-2.86,3.73-6.28,3.73-10.26s-1.24-7.5-3.73-10.36Zm9.13-35.76c-.27.42-.6.85-1,1.29-.29.35-.66.74-1.1,1.16l-1.17,1.06c-.42.4-.76.74-1,1.03-.69.78-1.07,1.53-1.13,2.26h-5.8c.02-1.02.33-2.01.93-2.99.24-.38.55-.77.93-1.2.27-.31.61-.67,1.03-1.1l1.03-1.03c.38-.4.69-.74.93-1.03.58-.75.87-1.47.87-2.16,0-1.37-.65-2.06-1.93-2.06-.91,0-1.54.33-1.9,1-.24.44-.38,1.17-.4,2.19h-6.1c0-.09-.01-.19-.03-.3v-.3c0-2.43.85-4.44,2.57-6.01,1.67-1.51,3.73-2.26,6.2-2.26,3.4,0,5.8,1.33,7.2,3.98.53,1,.8,2.01.8,3.05,0,1.22-.31,2.35-.93,3.39Z"/>
    <path class="cls-5" d="m1155.66,292.61v39.05h-12.9v-39.05h-9.96v-11.29h32.76v11.29h-9.9Z"/>
    <path class="cls-5" d="m1200.15,331.65v-20.12h-16.53v20.12h-12.9v-50.34h12.9v18.93h16.53v-18.93h12.9v50.34h-12.9Z"/>
    <path class="cls-5" d="m1265.46,325.15c-5.18,4.98-11.49,7.47-18.93,7.47s-13.45-2.45-18.63-7.34c-5.29-4.96-7.93-11.01-7.93-18.16,0-3.81.65-7.39,1.97-10.76.69-1.79,1.79-3.67,3.3-5.64,5.24-6.88,12.36-10.33,21.36-10.33,7.42,0,13.71,2.5,18.86,7.5,5.2,5.03,7.8,11.22,7.8,18.59s-2.6,13.61-7.8,18.66Zm-15.66-48.24l-3.13-3.92-3.13,3.92h-11.06l10.63-11.29h7.37l10.26,11.29h-10.93Zm6.83,19.29c-2.64-3.01-5.97-4.52-9.96-4.52s-7.38,1.46-10,4.38c-2.53,2.81-3.8,6.24-3.8,10.29s1.28,7.64,3.83,10.49c2.64,2.99,6.01,4.48,10.1,4.48s7.21-1.5,9.83-4.52c2.49-2.86,3.73-6.28,3.73-10.26s-1.24-7.5-3.73-10.36Z"/>
    <path class="cls-5" d="m1311.62,331.65l-19.23-30.61-.17.07.37,30.55h-12.36v-50.34h11.13l19.53,31.64.13-.13-.57-31.51h12.36v50.34h-11.2Z"/>
    <path class="cls-5" d="m1383.6,305.69c0,7.73-2.55,14.16-7.67,19.29-5.13,5.14-11.56,7.7-19.29,7.7s-13.8-2.53-19-7.6c-5.22-5.11-7.83-11.38-7.83-18.79s2.65-13.65,7.96-18.63c5.2-4.85,11.55-7.27,19.06-7.27,5.6,0,10.79,1.63,15.56,4.88,4.95,3.37,8.19,7.67,9.7,12.92h-14.46c-2.44-4.34-6.15-6.51-11.13-6.51-4.04,0-7.38,1.44-10,4.32-2.53,2.79-3.8,6.22-3.8,10.29s1.23,7.79,3.7,10.62c2.6,2.99,5.99,4.48,10.17,4.48,2.91,0,5.42-.65,7.53-1.96,2.27-1.42,3.78-3.46,4.53-6.14h-15.06v-10.26h29.96c.02.4.04.84.07,1.33v1.33Z"/>
    <path class="cls-5" d="m1442.72,331.65l-19.23-30.61-.17.07.37,30.55h-12.36v-50.34h11.13l19.53,31.64.13-.13-.57-31.51h12.36v50.34h-11.2Z"/>
    <path class="cls-5" d="m1495.67,331.65l-2.47-7.27h-17.53l-2.67,7.27h-13.86l20.26-50.34h10.17l20.09,50.34h-14Zm2.8-63.98c-.22,3.43-1.82,6-4.8,7.7-2.47,1.39-5.55,2.09-9.26,2.09s-6.88-.7-9.3-2.09c-2.93-1.7-4.52-4.27-4.77-7.7h7.7c.82,1,1.83,1.66,3.03,1.99.84.27,2.07.4,3.67.4,1.31,0,2.42-.15,3.33-.46,1.2-.4,2.09-1.04,2.67-1.93h7.73Zm-13.86,29.32h-.2l-5.2,17.2h10.6l-5.2-17.2Z"/>
    <path class="cls-5" d="m1546.23,331.65l-19.23-30.61-.17.07.37,30.55h-12.36v-50.34h11.13l19.53,31.64.13-.13-.57-31.51h12.36v50.34h-11.2Z"/>
    <path class="cls-5" d="m1618.21,305.69c0,7.73-2.56,14.16-7.67,19.29-5.13,5.14-11.56,7.7-19.29,7.7s-13.8-2.53-19-7.6c-5.22-5.11-7.83-11.38-7.83-18.79s2.65-13.65,7.96-18.63c5.2-4.85,11.55-7.27,19.06-7.27,5.6,0,10.79,1.63,15.56,4.88,4.95,3.37,8.19,7.67,9.7,12.92h-14.46c-2.44-4.34-6.15-6.51-11.13-6.51-4.04,0-7.38,1.44-10,4.32-2.53,2.79-3.8,6.22-3.8,10.29s1.23,7.79,3.7,10.62c2.6,2.99,5.99,4.48,10.16,4.48,2.91,0,5.42-.65,7.53-1.96,2.27-1.42,3.78-3.46,4.53-6.14h-15.06v-10.26h29.96c.02.4.04.84.07,1.33v1.33Z"/>
    <path class="cls-5" d="m1674.13,331.65l-13.8-21.75h-.13v21.75h-12.9v-50.34h12.9v22.64h.13l14.26-22.64h13.53l-16.73,25.1,17.8,25.23h-15.06Z"/>
    <path class="cls-5" d="m1723.59,331.65v-20.12h-16.53v20.12h-12.9v-50.34h12.9v18.93h16.53v-18.93h12.9v50.34h-12.9Z"/>
    <path class="cls-5" d="m1745.61,331.65v-50.34h12.9v50.34h-12.9Z"/>
    <path class="cls-5" d="m1784.64,276.9l-3.13-3.92-3.13,3.92h-11.06l10.63-11.29h7.4l10.23,11.29h-10.93Zm-17,54.75v-50.34h28.06v11.29h-15.7v7.84h15.23v11.29h-15.23v8.63h15.7v11.29h-28.06Zm26.29-60.46l-3.2-6.67,16.36-8.77,3.63,8.04-16.8,7.4Z"/>
    <path class="cls-5" d="m1842.29,311.73c0,3.43-.29,6.21-.87,8.33-.78,2.72-2.17,5.09-4.17,7.11-3.58,3.63-8.29,5.45-14.13,5.45-2.84,0-5.46-.41-7.86-1.23-2.71-.93-4.93-2.31-6.67-4.15-2.13-2.24-3.56-4.63-4.27-7.17-.31-1.15-.53-2.45-.67-3.88-.09-1.15-.13-2.63-.13-4.45v-30.41h12.9v30.41c0,1.33.07,2.47.2,3.42.18,1.22.48,2.25.9,3.09,1.02,2.06,2.84,3.09,5.47,3.09s4.53-1.01,5.46-3.02c.38-.82.64-1.84.8-3.05.09-.88.13-2.06.13-3.52v-30.41h12.9v30.41Z"/>
  </g>
</svg>